# xmcd
#
# Track frame offsets: 
#        150
#        24279
#        51655
#        73445
#        107640
#        143403
#        170566
#        204925
#        234472
#        264840
#
# Disc length: 4201 seconds
#
# Revision: 0
# Processed by: cddbd v1.5.2PL0 Copyright (c) Steve Scherf et al.
# Submitted via: ExactAudioCopy v0.95b4
#
DISCID=8810670a
DTITLE=Various Artist - Solid Sounds 2010.1 [CD2)
DYEAR=2010
DGENRE=Blues
TTITLE0=The Subs - Mitsubitchi
TTITLE1=Laidback Luke and Lee Mortimer - Blau!
TTITLE2=Vitalic - Poison Lips
TTITLE3=Christian Smith and Reset Robot - Air Miles (2000 and One and DJ M
TTITLE3=adskillz remix)
TTITLE4=Ramon Tapia - Colorz (Original Mix)
TTITLE5=Dr. Kucho! - Funkatron
TTITLE6=Reboot - Enjoy Music
TTITLE7=N/A feat. Rosina - Fables And Fairytales (Deniz Kurtel Remix)
TTITLE8=David West and Inkfish - Ghetto Feel
TTITLE9=Peter Kruder - Hard To Find
EXTD=
EXTT0=
EXTT1=
EXTT2=
EXTT3=
EXTT4=
EXTT5=
EXTT6=
EXTT7=
EXTT8=
EXTT9=
PLAYORDER=
